# xmcd CD database file
#
# Track frame offsets:
#	150
#	19525
#	44481
#	69426
#	89600
#	108248
#	125628
#	139274
#	165160
#	188245
#	197929
#	217941
#	236692
#	251148
#	268946
#	292220
#	313445
#	328871
#	340422
#
# Disc length: 4749 seconds
#
# Revision: 2
# Processed by: cddbd v1.5.2PL0 Copyright (c) Steve Scherf et al.
# Submitted via: CDex 1.79
#
DISCID=33128b13
DTITLE=Robert Harris - Pompeii CD 8
DYEAR=2004
DGENRE=Audiobook
TTITLE0=Pompeii 113
TTITLE1=Pompeii 114
TTITLE2=Pompeii 115
TTITLE3=Pompeii 116
TTITLE4=Pompeii 117
TTITLE5=Pompeii 118
TTITLE6=Pompeii 119
TTITLE7=Pompeii 120
TTITLE8=Pompeii 121
TTITLE9=Pompeii 122
TTITLE10=Pompeii 123
TTITLE11=Pompeii 124
TTITLE12=Pompeii 125
TTITLE13=Pompeii 126
TTITLE14=Pompeii 127
TTITLE15=Pompeii 128
TTITLE16=Pompeii 129
TTITLE17=Pompeii 130
TTITLE18=Pompeii 131
EXTD=YEAR: 2004
EXTT0=
EXTT1=
EXTT2=
EXTT3=
EXTT4=
EXTT5=
EXTT6=
EXTT7=
EXTT8=
EXTT9=
EXTT10=
EXTT11=
EXTT12=
EXTT13=
EXTT14=
EXTT15=
EXTT16=
EXTT17=
EXTT18=
PLAYORDER=
